<svg xmlns="http://www.w3.org/2000/svg" viewBox="0 0 500 500"><g id="freepik--Floor--inject-71"><path d="M103.26,428.68c82.76,43.24,216.94,43.24,299.7,0s82.77-113.33,0-156.57-216.94-43.23-299.7,0S20.5,385.45,103.26,428.68Z" style="fill:#f5f5f5"></path></g><g id="freepik--Shadow--inject-71"><ellipse cx="392.89" cy="385.06" rx="45.55" ry="21.71" style="fill:#e0e0e0"></ellipse></g><g id="freepik--Plants--inject-71"><path d="M67.88,370.52a6.07,6.07,0,0,0-1-2.52,5.86,5.86,0,0,0-3.66-1.83,41.3,41.3,0,0,1-4.14-.61,8.1,8.1,0,0,1-5.69-9.94l0-.06c.37-1.32,1.07-2.54,1.44-3.86,1-3.49-1.73-4.94-4.2-6.62-1.73-1.17-4.55-2.89-4.19-5.35.68-4.62,7.48-5.79,14-3.94s10,3.3,14.84,2,9.33-1.6,11.87,2.74,0,8.39,3.27,11.42,9,.95,11.25,7.51v39.09c0-.23-1.12-1-1.28-1.13l-3.59-3.17c-1.1-1-2.69-1.88-3.44-3.12-1.06-1.72-1.58-3.76-2.66-5.5a13.54,13.54,0,0,0-5.08-5c-4.15-2.14-9.19-1.77-13.4-3.84a7.24,7.24,0,0,1-3.54-3.43A14.87,14.87,0,0,1,67.88,370.52Z" style="fill:#BA68C8"></path><path d="M67.88,370.52a6.07,6.07,0,0,0-1-2.52,5.86,5.86,0,0,0-3.66-1.83,41.3,41.3,0,0,1-4.14-.61,8.1,8.1,0,0,1-5.69-9.94l0-.06c.37-1.32,1.07-2.54,1.44-3.86,1-3.49-1.73-4.94-4.2-6.62-1.73-1.17-4.55-2.89-4.19-5.35.68-4.62,7.48-5.79,14-3.94s10,3.3,14.84,2,9.33-1.6,11.87,2.74,0,8.39,3.27,11.42,9,.95,11.25,7.51v39.09c0-.23-1.12-1-1.28-1.13l-3.59-3.17c-1.1-1-2.69-1.88-3.44-3.12-1.06-1.72-1.58-3.76-2.66-5.5a13.54,13.54,0,0,0-5.08-5c-4.15-2.14-9.19-1.77-13.4-3.84a7.24,7.24,0,0,1-3.54-3.43A14.87,14.87,0,0,1,67.88,370.52Z" style="opacity:0.20000000298023224;isolation:isolate"></path><path d="M101.81,389.94a.51.51,0,0,1-.5-.41c-4.13-23.54-31.69-45.28-48.1-49.34a.49.49,0,0,1-.36-.59h0a.5.5,0,0,1,.6-.37c16.67,4.12,44.65,26.22,48.85,50.13a.5.5,0,0,1-.41.58h-.08Z" style="fill:#fff"></path><path d="M62.83,357.24a.53.53,0,0,1-.4-.19.5.5,0,0,1,.09-.7c3.91-3.1,11.89-4,15.08-3.81a.5.5,0,1,1-.06,1c-3.27-.22-10.87.8-14.4,3.59A.51.51,0,0,1,62.83,357.24Z" style="fill:#fff"></path><path d="M81,356.52h-.19a.49.49,0,0,1-.28-.64h0c2.09-5.08,1-13.63.94-13.72a.5.5,0,0,1,.42-.56.51.51,0,0,1,.57.43c0,.36,1.18,8.91-1,14.23A.5.5,0,0,1,81,356.52Z" style="fill:#fff"></path><path d="M99.64,405.41c-1.2-3.52-7-10.93-17.36-16.73-9.06-5.05-23-8.79-21.8-15.44s14.09-6.8,23-1.45c11.17,6.71,17.44,20.44,18.17,25.85Z" style="fill:#BA68C8"></path><path d="M100.72,401.7a.49.49,0,0,1-.49-.41c-2.32-12.29-19.74-29-33.64-28.63a.5.5,0,0,1-.52-.48h0a.5.5,0,0,1,.49-.52c14.37-.36,32.27,16.8,34.65,29.44a.51.51,0,0,1-.39.59h-.1Z" style="fill:#fff"></path><path d="M407.92,350.25c2-6.64,8.51-12.73,14.08-16.39s9.82-5.46,12.28-7.53c3-2.5-.89-8.43-10.07-4.95s-14.76,13.69-18.11,24Z" style="fill:#BA68C8"></path><path d="M407.92,350.25c2-6.64,8.51-12.73,14.08-16.39s9.82-5.46,12.28-7.53c3-2.5-.89-8.43-10.07-4.95s-14.76,13.69-18.11,24Z" style="opacity:0.20000000298023224;isolation:isolate"></path><path d="M407.61,345.92h-.2a.56.56,0,0,1-.33-.71h0c3.47-9.06,12.56-20,22.56-22.33a.57.57,0,0,1,.65.46.56.56,0,0,1-.4.63c-8.45,2-17.81,11.3-21.77,21.64A.55.55,0,0,1,407.61,345.92Z" style="fill:#fff"></path><path d="M405.84,376.49c2.44-2.69,7.7-1.67,10.65-5.23,2.33-2.8.55-6.91,2.89-9.58a6.81,6.81,0,0,1,2.39-1.57,37.19,37.19,0,0,0,5.7-2.62c1.75-1.17,3.19-3.08,3-5.17s-1.73-3.84-1.67-5.9a6.3,6.3,0,0,1,1.95-3.89,20.17,20.17,0,0,0,2.91-3.35,3.39,3.39,0,0,0,.53-2.32,3,3,0,0,0-2.51-2.17c-3.07-.59-5.74,1.15-8.4,2.41-2.27,1.08-4.4.89-6.89.9a9.2,9.2,0,0,0-2.95.33c-1.94.65-3.23,2.49-4.11,4.35s-1.49,3.87-2.75,5.49a33.92,33.92,0,0,0-2.62,3.11,13.45,13.45,0,0,0-1.27,4.38,39.83,39.83,0,0,0-.81,11.16,19.76,19.76,0,0,0,1.15,5.32C403.23,372.53,405.59,376.76,405.84,376.49Z" style="fill:#BA68C8"></path><path d="M425.52,353.78h-.14c-.08,0-7.86-1.95-13.47-.66a.57.57,0,0,1-.67-.42.56.56,0,0,1,.42-.67c5.86-1.34,13.66.59,14,.67a.56.56,0,0,1,.39.69.55.55,0,0,1-.52.41Z" style="fill:#fff"></path><path d="M416.29,348.21a.56.56,0,0,1-.55-.52,24,24,0,0,0-1.77-6.22.56.56,0,0,1,1-.45,24.8,24.8,0,0,1,1.86,6.59.57.57,0,0,1-.52.6Z" style="fill:#fff"></path><path d="M403.49,373.15h-.06a.55.55,0,0,1-.49-.6h0c1.68-14.44,10.39-26,25.89-34.46a.56.56,0,0,1,.75.22h0a.55.55,0,0,1-.22.75h0c-15.16,8.25-23.68,19.55-25.31,33.61A.56.56,0,0,1,403.49,373.15Z" style="fill:#fff"></path></g><g id="freepik--Clouds--inject-71"><path d="M174.57,102.48l-6.47,3.73a6.07,6.07,0,0,0,.06-.85v-1.88c0-3.33-2.34-4.68-5.23-3a10.12,10.12,0,0,0-3.11,3c-.48-4.19-3.76-5.75-7.76-3.44a17.28,17.28,0,0,0-7.82,13.54v2.8a7.29,7.29,0,0,0,.67,3.25l-5.37,3.1a6.38,6.38,0,0,0-2.9,5c0,1.85,1.29,2.6,2.9,1.67l35-20.22a6.43,6.43,0,0,0,2.9-5C177.47,102.31,176.17,101.56,174.57,102.48Z" style="fill:#ebebeb"></path><path d="M131.83,85.31l-3.56,1.37V78.82c0-6.22-5-7.72-10.36-4.6h0c-5.4,3.11-9.77,10.68-9.77,16.91v1.14a5.21,5.21,0,0,0-4.53.7h0a15.52,15.52,0,0,0-7,12.17v.52l-5,2.87a10.23,10.23,0,0,0-4.63,8c0,3,2.07,4.15,4.63,2.67L131.83,96a10.23,10.23,0,0,0,4.63-8C136.46,85,134.39,83.83,131.83,85.31Z" style="fill:#ebebeb"></path></g><g id="freepik--Thumbtacks--inject-71"><path d="M224.37,405l-.13.13a1.2,1.2,0,0,1-.34.25c-.25.16-.38,0-.61-.15l-1.87-1.1c-.78-.45-1.68-1-2.64-1.57s-2-1.19-3-1.84c-2-1.27-4.05-2.57-5.53-3.59l-2.47-1.71s1.1.48,2.71,1.28,3.77,1.87,5.88,3c1.07.56,2.11,1.14,3.1,1.68s1.9,1.05,2.68,1.5L224,404c.22.15.45.16.44.46a1.21,1.21,0,0,1-.05.42Z" style="fill:#e0e0e0"></path><path d="M226.3,406.36c-1.45,2.51-3.81,3.87-6.3,2.52l-.14-.07h-.06a2.69,2.69,0,0,1-1.05-2.41,8.33,8.33,0,0,1,3.78-6.54,2.75,2.75,0,0,1,2.53-.34l.13.08.23.14C227.75,401.2,227.73,403.89,226.3,406.36Z" style="fill:#263238"></path><path d="M224.17,402.35c1.36-.78,2.46-.15,2.46,1.42a5.42,5.42,0,0,1-2.46,4.26c-1.36.78-2.46.15-2.46-1.42A5.44,5.44,0,0,1,224.17,402.35Z" style="fill:#455a64"></path><path d="M232.14,406.55a26.4,26.4,0,0,1-6.1-4.28l-3.61,5.93a25.36,25.36,0,0,1,6.91,3.13Z" style="fill:#455a64"></path><path d="M234.55,407.46a3,3,0,0,0-3-2.95,3.12,3.12,0,0,0-1,.2h-.17a2.86,2.86,0,0,0-.47.22,6.6,6.6,0,0,0-3,5.17,3.82,3.82,0,0,0,.08.75,3,3,0,0,0,5.85-.51,1.31,1.31,0,0,0,0-.28A3,3,0,0,0,234.55,407.46Z" style="fill:#263238"></path><path d="M231.6,406c1.65-.95,3-.18,3,1.73a6.6,6.6,0,0,1-3,5.17c-1.65,1-3,.18-3-1.72A6.61,6.61,0,0,1,231.6,406Z" style="fill:#455a64"></path><path d="M247.29,398.22l-.13.13a1.7,1.7,0,0,1-.34.26c-.25.16-.38,0-.61-.15l-1.87-1.1-2.64-1.57c-1-.57-2-1.2-3-1.84-2-1.27-4-2.58-5.53-3.6s-2.47-1.71-2.47-1.71,1.1.49,2.71,1.29,3.77,1.86,5.88,3c1.07.55,2.11,1.14,3.1,1.68s1.9,1,2.68,1.49,1.43.82,1.89,1.07c.21.15.44.16.43.46a1.48,1.48,0,0,1,0,.42Z" style="fill:#e0e0e0"></path><path d="M249.18,399.58c-1.45,2.51-3.81,3.87-6.3,2.52l-.14-.08h-.06a2.69,2.69,0,0,1-1.05-2.41,8.39,8.39,0,0,1,3.78-6.55,2.75,2.75,0,0,1,2.53-.33l.14.07a1.07,1.07,0,0,1,.22.15C250.64,394.42,250.62,397.1,249.18,399.58Z" style="fill:#263238"></path><path d="M247.05,395.57c1.36-.79,2.46-.15,2.46,1.42a5.41,5.41,0,0,1-2.46,4.25c-1.35.79-2.45.15-2.45-1.41A5.43,5.43,0,0,1,247.05,395.57Z" style="fill:#455a64"></path><path d="M255,399.76a26.4,26.4,0,0,1-6.1-4.28l-3.6,5.94a24.69,24.69,0,0,1,6.9,3.12Z" style="fill:#455a64"></path><path d="M257.43,400.68a3,3,0,0,0-3-2.95,2.87,2.87,0,0,0-1,.2h-.06l-.11.05a4,4,0,0,0-.47.21,6.61,6.61,0,0,0-3,5.18,3.06,3.06,0,0,0,.09.74,2.94,2.94,0,0,0,5.84-.51v-.27A3,3,0,0,0,257.43,400.68Z" style="fill:#263238"></path><path d="M254.48,399.18c1.65-.95,3-.18,3,1.72a6.59,6.59,0,0,1-3,5.18c-1.65.95-3,.18-3-1.73A6.61,6.61,0,0,1,254.48,399.18Z" style="fill:#455a64"></path><path d="M183.37,398.84v-.18a1.52,1.52,0,0,1-.06-.42c0-.3.22-.31.44-.46l1.89-1.07c.78-.45,1.69-1,2.68-1.5s2-1.12,3.09-1.68c2.12-1.12,4.25-2.21,5.88-3s2.72-1.28,2.72-1.28-1,.71-2.47,1.71-3.5,2.32-5.53,3.59c-1,.65-2,1.26-3,1.84s-1.87,1.12-2.64,1.57l-1.87,1.1c-.24.12-.36.31-.62.15a1.15,1.15,0,0,1-.33-.25Z" style="fill:#e0e0e0"></path><path d="M181.44,400.19c1.46,2.51,3.82,3.87,6.31,2.52l.14-.07h.05a2.69,2.69,0,0,0,1.06-2.41,8.36,8.36,0,0,0-3.78-6.54,2.75,2.75,0,0,0-2.53-.34l-.14.08a1.64,1.64,0,0,0-.22.14C180,395,180,397.72,181.44,400.19Z" style="fill:#263238"></path><path d="M183.57,396.18c-1.35-.78-2.45-.15-2.45,1.42a5.43,5.43,0,0,0,2.45,4.26c1.36.78,2.46.15,2.46-1.42A5.44,5.44,0,0,0,183.57,396.18Z" style="fill:#455a64"></path><path d="M175.61,400.38a26.4,26.4,0,0,0,6.1-4.28l3.6,5.93a25.36,25.36,0,0,0-6.91,3.13Z" style="fill:#455a64"></path><path d="M173.2,401.29a2.93,2.93,0,0,1,2.91-3,2.74,2.74,0,0,1,1.09.2h.07l.11,0a3.88,3.88,0,0,1,.46.22,6.61,6.61,0,0,1,3,5.17,3.2,3.2,0,0,1-.09.75,2.94,2.94,0,0,1-5.84-.51,1.31,1.31,0,0,1,0-.28A2.94,2.94,0,0,1,173.2,401.29Z" style="fill:#263238"></path><path d="M176.15,399.8c-1.65-1-3-.19-3,1.72a6.61,6.61,0,0,0,3,5.17c1.65,1,3,.18,3-1.72A6.57,6.57,0,0,0,176.15,399.8Z" style="fill:#455a64"></path></g><g id="freepik--cork-board--inject-71"><polygon points="117.11 391.06 362.67 249.29 362.67 57.36 117.11 199.13 117.11 391.06" style="fill:#BA68C8"></polygon><polygon points="117.11 391.06 362.67 249.29 362.67 57.36 117.11 199.13 117.11 391.06" style="fill:#fff;opacity:0.6000000238418579;isolation:isolate"></polygon><polygon points="105.78 192.59 117.11 199.13 362.67 57.36 374 37.73 105.78 192.59" style="fill:#37474f"></polygon><polygon points="374 255.84 374 37.73 362.67 57.36 362.67 249.29 374 255.84" style="fill:#455a64"></polygon><polygon points="105.78 192.59 117.11 199.13 117.11 391.06 105.78 410.69 105.78 192.59" style="fill:#455a64"></polygon><polygon points="117.11 391.06 362.67 249.29 374 255.84 105.78 410.69 117.11 391.06" style="fill:#37474f"></polygon><polygon points="374 37.73 366.44 33.37 98.22 188.23 105.78 192.59 374 37.73" style="fill:#455a64"></polygon><polygon points="98.22 188.23 105.78 192.59 105.78 410.69 98.22 406.33 98.22 188.23" style="fill:#263238"></polygon><polygon points="362.67 57.36 358.89 59.54 358.88 247.12 117.11 386.7 117.11 391.06 362.67 249.29 362.67 57.36" style="fill:#263238"></polygon></g><g id="freepik--Photos--inject-71"><path d="M191.54,230.29l-50.88,29.37a2.23,2.23,0,0,0-1,1.74v82.71c0,.65.45.91,1,.58l50.88-29.37a2.23,2.23,0,0,0,1-1.74V230.87C192.54,230.23,192.09,230,191.54,230.29Z" style="fill:#455a64"></path><path d="M196.87,228.67l-1.76-1a2.27,2.27,0,0,0-2,0L142.22,257a2.22,2.22,0,0,0-1,1.75v82.7a2.22,2.22,0,0,0,1,1.75l1.76,1a2.27,2.27,0,0,0,2,0l50.87-29.38a2.23,2.23,0,0,0,1-1.74V230.41A2.2,2.2,0,0,0,196.87,228.67Z" style="fill:#fafafa"></path><path d="M168.28,273.23l-26.77-15.46a2,2,0,0,0-.3,1v82.7a2.22,2.22,0,0,0,1,1.75l1.76,1a2.27,2.27,0,0,0,2,0l22.36-19.43C168.47,305.38,168.6,273.41,168.28,273.23Z" style="fill:#e0e0e0"></path><path d="M196.87,229.83,146,259.2a2.22,2.22,0,0,0-1,1.75v82.71c0,.64.45.9,1,.58l50.87-29.38a2.23,2.23,0,0,0,1-1.74V230.41C197.88,229.77,197.43,229.51,196.87,229.83Z" style="fill:#f0f0f0"></path><path d="M147.89,260.29,195,233.1c.56-.32,1-.06,1,.58V311a2.25,2.25,0,0,1-1,1.75l-47.1,27.19c-.55.32-1,.06-1-.59V262A2.23,2.23,0,0,1,147.89,260.29Z" style="fill:#fafafa"></path><path d="M146.88,262v13.75c1.54.56,3.52.3,5.66-.94,5-2.86,9-9.82,9-15.54,0-2.65-.86-4.56-2.27-5.58l-11.36,6.56A2.24,2.24,0,0,0,146.88,262Z" style="fill:#BA68C8"></path><path d="M187.45,258.86l-12.24,29.28-8-6.5a1.4,1.4,0,0,0-2,.19,1.61,1.61,0,0,0-.19.31l-18.14,39.8v17.38c0,.65.45.91,1,.59L155,335.8l40-23.08a2.25,2.25,0,0,0,1-1.75V267.42l-6.11-8.81a1.39,1.39,0,0,0-1.93-.38A1.37,1.37,0,0,0,187.45,258.86Z" style="fill:#BA68C8"></path><path d="M174.4,254.38c-1.45,2.51-3.82,3.87-6.31,2.52l-.14-.07h0a2.69,2.69,0,0,1-1-2.41,8.32,8.32,0,0,1,3.77-6.54,2.75,2.75,0,0,1,2.53-.34l.14.08a1.64,1.64,0,0,1,.22.14C175.85,249.22,175.83,251.91,174.4,254.38Z" style="fill:#263238"></path><path d="M172.27,250.37c1.36-.78,2.46-.15,2.46,1.42a5.42,5.42,0,0,1-2.46,4.26c-1.36.78-2.46.15-2.46-1.42A5.44,5.44,0,0,1,172.27,250.37Z" style="fill:#455a64"></path><path d="M180.23,254.57a26.35,26.35,0,0,1-6.09-4.28l-3.61,5.93a25.36,25.36,0,0,1,6.91,3.13Z" style="fill:#455a64"></path><path d="M182.64,255.48a2.93,2.93,0,0,0-2.91-2.95,2.74,2.74,0,0,0-1.09.2h-.06l-.12.05a3.88,3.88,0,0,0-.46.22,6.61,6.61,0,0,0-3,5.17,3.2,3.2,0,0,0,.09.75,3,3,0,0,0,5.85-.51,1.31,1.31,0,0,0,0-.28A3,3,0,0,0,182.64,255.48Z" style="fill:#263238"></path><ellipse cx="179.69" cy="257.42" rx="4.22" ry="2.44" transform="translate(-133.09 284.38) rotate(-60.01)" style="fill:#455a64"></ellipse><path d="M261.54,143.29l-50.88,29.37a2.21,2.21,0,0,0-1,1.74v82.71c0,.65.45.91,1,.58l50.88-29.37a2.24,2.24,0,0,0,1-1.74V143.87C262.54,143.23,262.09,143,261.54,143.29Z" style="fill:#455a64"></path><path d="M266.87,141.67l-1.76-1a2.2,2.2,0,0,0-2,0L212.22,170a2.25,2.25,0,0,0-1,1.75v82.7a2.25,2.25,0,0,0,1,1.75l1.76,1a2.27,2.27,0,0,0,2,0l50.87-29.38a2.19,2.19,0,0,0,1-1.74V143.41A2.18,2.18,0,0,0,266.87,141.67Z" style="fill:#fafafa"></path><path d="M238.28,186.23l-26.77-15.46a2.05,2.05,0,0,0-.3,1v82.7a2.25,2.25,0,0,0,1,1.75l1.76,1a2.27,2.27,0,0,0,2,0l22.36-19.43C238.47,218.38,238.6,186.41,238.28,186.23Z" style="fill:#e0e0e0"></path><path d="M266.87,142.83,216,172.2a2.25,2.25,0,0,0-1,1.75v82.71c0,.64.45.9,1,.58l50.87-29.38a2.19,2.19,0,0,0,1-1.74V143.41C267.88,142.77,267.43,142.51,266.87,142.83Z" style="fill:#f0f0f0"></path><path d="M217.89,173.29,265,146.1c.56-.32,1-.06,1,.58V224a2.22,2.22,0,0,1-1,1.75l-47.1,27.19c-.55.32-1,.06-1-.59V175A2.25,2.25,0,0,1,217.89,173.29Z" style="fill:#fafafa"></path><path d="M216.88,175v13.75c1.54.56,3.52.3,5.66-.94,5-2.86,9-9.82,9-15.54,0-2.65-.86-4.56-2.27-5.58l-11.36,6.56A2.25,2.25,0,0,0,216.88,175Z" style="fill:#BA68C8"></path><path d="M257.45,171.86l-12.24,29.28-8-6.5a1.41,1.41,0,0,0-2.15.5l-18.14,39.8v17.38c0,.65.45.91,1,.59L225,248.8l40-23.08a2.22,2.22,0,0,0,1-1.75V180.42l-6.11-8.81a1.38,1.38,0,0,0-1.92-.38A1.4,1.4,0,0,0,257.45,171.86Z" style="fill:#BA68C8"></path><path d="M244.4,167.38c-1.45,2.51-3.82,3.87-6.31,2.52l-.14-.07h0a2.72,2.72,0,0,1-1-2.41,8.37,8.37,0,0,1,3.77-6.54,2.76,2.76,0,0,1,2.53-.34l.14.08a.64.64,0,0,1,.22.14C245.85,162.22,245.83,164.91,244.4,167.38Z" style="fill:#263238"></path><path d="M242.27,163.37c1.36-.78,2.46-.15,2.46,1.42a5.41,5.41,0,0,1-2.46,4.26c-1.36.78-2.46.15-2.46-1.42A5.43,5.43,0,0,1,242.27,163.37Z" style="fill:#455a64"></path><path d="M250.23,167.57a26.65,26.65,0,0,1-6.09-4.28l-3.61,5.93a25.07,25.07,0,0,1,6.91,3.13Z" style="fill:#455a64"></path><path d="M252.64,168.48a2.91,2.91,0,0,0-4-2.75h-.06l-.12.05a3.21,3.21,0,0,0-.46.22,6.61,6.61,0,0,0-3,5.17,4.8,4.8,0,0,0,.09.75,2.95,2.95,0,0,0,5.85-.51,1.31,1.31,0,0,0,0-.28A2.92,2.92,0,0,0,252.64,168.48Z" style="fill:#263238"></path><ellipse cx="249.7" cy="170.42" rx="4.22" ry="2.44" transform="translate(-22.72 301.5) rotate(-60.01)" style="fill:#455a64"></ellipse><path d="M336,152.52l-50.88,29.37a2.24,2.24,0,0,0-1,1.74v82.71c0,.65.45.91,1,.58L336,237.55a2.23,2.23,0,0,0,1-1.74V153.1C337,152.46,336.59,152.23,336,152.52Z" style="fill:#455a64"></path><path d="M341.37,150.9l-1.76-1a2.27,2.27,0,0,0-2,0l-50.89,29.33a2.22,2.22,0,0,0-1,1.75v82.7a2.22,2.22,0,0,0,1,1.75l1.76,1a2.2,2.2,0,0,0,2,0l50.87-29.38a2.21,2.21,0,0,0,1-1.74V152.64A2.21,2.21,0,0,0,341.37,150.9Z" style="fill:#fafafa"></path><path d="M312.78,195.46,286,180a2,2,0,0,0-.3,1v82.7a2.22,2.22,0,0,0,1,1.75l1.76,1a2.2,2.2,0,0,0,2,0L312.83,247C313,227.61,313.1,195.64,312.78,195.46Z" style="fill:#e0e0e0"></path><path d="M341.37,152.06,290.5,181.43a2.22,2.22,0,0,0-1,1.75v82.71c0,.64.45.9,1,.58l50.87-29.38a2.21,2.21,0,0,0,1-1.74V152.64C342.38,152,341.93,151.74,341.37,152.06Z" style="fill:#f0f0f0"></path><path d="M292.39,182.52l47.11-27.19c.56-.32,1-.06,1,.58v77.32a2.25,2.25,0,0,1-1,1.75l-47.1,27.19c-.55.32-1,.06-1-.59V184.23A2.25,2.25,0,0,1,292.39,182.52Z" style="fill:#fafafa"></path><path d="M291.38,184.23V198c1.54.56,3.52.3,5.66-.94,5-2.86,9-9.82,9-15.54,0-2.65-.86-4.56-2.27-5.58l-11.36,6.56A2.25,2.25,0,0,0,291.38,184.23Z" style="fill:#BA68C8"></path><path d="M332,181.09l-12.24,29.28-8-6.5a1.4,1.4,0,0,0-2,.19,2,2,0,0,0-.19.31l-18.14,39.8v17.38c0,.65.45.91,1,.59L299.5,258l40-23.08a2.25,2.25,0,0,0,1-1.75V189.65l-6.11-8.81a1.39,1.39,0,0,0-1.93-.37A1.34,1.34,0,0,0,332,181.09Z" style="fill:#BA68C8"></path></g><g id="freepik--Character--inject-71"><path d="M420.39,229.39c-1.2-5.18-3.61-15.64-6.15-27-1.29-5.79-2.76-11.54-7.08-12.44,0,0-11.38,4.5-11.38,12.89s9.33,11.55,9.33,11.55,6,16.67,5.87,19" style="fill:#ffa8a7"></path><path d="M319.18,176.8c-1.45,2.51-3.81,3.87-6.3,2.52l-.14-.07h-.06a2.69,2.69,0,0,1-1.05-2.41,8.36,8.36,0,0,1,3.78-6.55,2.78,2.78,0,0,1,2.53-.33l.14.07.22.15C320.63,171.64,320.61,174.33,319.18,176.8Z" style="fill:#263238"></path><path d="M317.05,172.79c1.36-.78,2.46-.15,2.46,1.42a5.44,5.44,0,0,1-2.46,4.26c-1.35.78-2.45.15-2.45-1.42A5.46,5.46,0,0,1,317.05,172.79Z" style="fill:#455a64"></path><path d="M325,177a26.4,26.4,0,0,1-6.1-4.28l-3.61,5.93a25.07,25.07,0,0,1,6.91,3.13Z" style="fill:#455a64"></path><path d="M382,187.63c-3.92,0-7.84-.31-10.79,1.79-7.64,5.43-17.31,12.6-22,16.55,0,0-13.84-27.85-18.91-31.41-3.27-2.3-5.86-3.27-8.13-3.4a6.53,6.53,0,0,0-5.63,2.26c-2.14,2.5-1.35,6,3.66,5.16,1.34-.23,2.33-3,2.33-3,1.24.12.4,4.33,1.62,4.62,2.12,2.87,4.54,1.67,5.74,4.77,1.65,4.28,11.77,31.71,13.38,33.8,1.77,2.3,4.12,3.12,8,1.12S375,205.41,375,205.41Z" style="fill:#ffa8a7"></path><path d="M327.43,177.9a3,3,0,0,0-2.95-3,2.92,2.92,0,0,0-1.05.2h-.06l-.11.05a2.86,2.86,0,0,0-.47.22,6.6,6.6,0,0,0-3,5.17,3.2,3.2,0,0,0,.09.75,2.94,2.94,0,0,0,5.84-.51,1.31,1.31,0,0,0,0-.28A3,3,0,0,0,327.43,177.9Z" style="fill:#263238"></path><path d="M324.48,176.4c1.65-1,3-.18,3,1.73a6.61,6.61,0,0,1-3,5.17c-1.65.95-3,.18-3-1.72A6.61,6.61,0,0,1,324.48,176.4Z" style="fill:#455a64"></path><rect x="396.13" y="364.26" width="8.12" height="11.82" style="fill:#ffa8a7"></rect><path d="M382.46,372.59c-.49,1.45-2.93,2.6-4.69,3.91a3.42,3.42,0,0,0-1.11,4.3c.66,1.14,3.77,1.73,7.08,1.2,3.74-.61,7-2.18,7.66-5.5a36.82,36.82,0,0,1,2.2-8.12c.65-1.71,1.79-3.32,1.52-5a6.23,6.23,0,0,0-2.8-4s-6.14,13.92-7.87,14.25S382.46,372.59,382.46,372.59Z" style="fill:#263238"></path><path d="M382.18,354s1.3,4.61,1.73,6.12-.17,9.2-1,11.32a5.74,5.74,0,0,1-2.05,3.1s-2.49,2.16.39,2.59a6.5,6.5,0,0,0,6.54-2.21c1.91-2.18,2.15-8.43,3.43-11,.82-1.65,1.42-2.66,1.64-3.2s-.57-.83-1.37-3.16a50.74,50.74,0,0,1-1.41-7Z" style="fill:#ffa8a7"></path><path d="M409.91,243.8c4.24,11.79.54,32.35-.56,44-1.07,11.29-2.4,24.49-2.4,24.49s3.46,11.94,3.29,21.14c-.17,9.77-5.89,33.3-5.89,33.3a7.71,7.71,0,0,1-8.33,0s-1.46-19.75-2.78-31c-1.39-11.71-1.86-20.25-3.06-27.1-1.51-8.53-2.86-42.15-2.86-42.15L381,301.9a77.22,77.22,0,0,1,4.79,13.1c1.78,6.93,5.26,39.42,5.26,39.42s-2.53,3.68-8.17,3.07c0,0-16.36-47-18-51.44-2.24-6.14,1.54-46.47,2.78-60Z" style="fill:#455a64"></path><path d="M395.49,188.06s10.3,1.29,11.67,1.91c-10.78,7.58-2.05,24.44-2.05,24.44l-5.22,14.35c4.46,5,7.15,7.76,10,15-3,3.48-21.68,15.5-42.22,2.29a188.51,188.51,0,0,1,2.42-20.79c-3-14.17-3.27-18.64-2.42-21.95C370.1,194,375.62,188,382,187.67Z" style="fill:#BA68C8"></path><path d="M395.49,188.06s10.3,1.29,11.67,1.91c-10.78,7.58-2.05,24.44-2.05,24.44l-5.22,14.35c4.46,5,7.15,7.76,10,15-3,3.48-21.68,15.5-42.22,2.29a188.51,188.51,0,0,1,2.42-20.79c-3-14.17-3.27-18.64-2.42-21.95C370.1,194,375.62,188,382,187.67Z" style="opacity:0.20000000298023224;isolation:isolate"></path><path d="M396.13,372.07v-1.16a22.47,22.47,0,0,1-5.8,10.17c-2.56,2.33-6.06,5-6.95,7.63s4.13,3.79,7.44,3.45a13.32,13.32,0,0,0,8.34-4.36c2.1-2.41,2.07-4.06,3-5.39s3.25-2.82,3.78-4.35c.29-.85-.06-2.7-.47-4.27s-.78-3-1.27-2.88v.89a6.43,6.43,0,0,1-4.06,1.37C399,373.22,396.12,373,396.13,372.07Z" style="fill:#263238"></path><path d="M404.25,371.8c-.25-.8-2.41,1.13-4.25,1.2-1.19.05-3-.09-3-1l-.87-1.09a22.47,22.47,0,0,1-5.8,10.17l-1.95,1.73c-1.37,1.52-1,2.84,2.22,3.12s6-1.66,8.45-4.64S404.25,371.8,404.25,371.8Z" style="fill:#ffa8a7"></path><path d="M388.47,181.15h-1.92a18.49,18.49,0,0,1-18.49-18.49v-1.88a15.72,15.72,0,0,1,15.72-15.72h7.57a15.72,15.72,0,0,1,15.72,15.72h0v1.77a18.6,18.6,0,0,1-18.6,18.6Z" style="fill:#263238"></path><path d="M374.47,152.92c-2.06,1.22-4.61,6.4-4.36,17.26.22,9.2,3.2,11.48,4.7,12.13s4.39.26,7.19-.21v5.53s-3.88,4.51-3.63,7,5.6,3.13,9.24.66,6.69-7.3,6.69-7.3l-.06-12.7s1.65,1.6,4.45-.85c2.32-2,3.1-5.43,1.29-7.26a4,4,0,0,0-5.66.14,4.12,4.12,0,0,0-.75,1.13s-4.48.17-10.45-3.11A16.77,16.77,0,0,1,374.47,152.92Z" style="fill:#ffa8a7"></path><path d="M380.39,167.87a1.16,1.16,0,1,0,1.22-1.15,1.18,1.18,0,0,0-1.22,1.14Z" style="fill:#263238"></path><path d="M380.08,175.67l-2.69.86a1.39,1.39,0,0,0,1.68,1l.07,0A1.48,1.48,0,0,0,380.08,175.67Z" style="fill:#f28f8f"></path><path d="M370.9,164.31l2.34-1.62a1.36,1.36,0,0,0-1.87-.45l-.07,0A1.49,1.49,0,0,0,370.9,164.31Z" style="fill:#263238"></path><path d="M371.44,167a1.16,1.16,0,1,0,1.22-1.15A1.19,1.19,0,0,0,371.44,167Z" style="fill:#263238"></path><polygon points="376.9 166.37 376.72 173.34 373.05 172.2 376.9 166.37" style="fill:#f28f8f"></polygon><path d="M382,182.1c3-.39,9.06-2.13,10-4.54a6.2,6.2,0,0,1-2.13,3.07C388.05,182.19,382,184,382,184Z" style="fill:#f28f8f"></path><polygon points="402.97 220.29 394.87 231.27 399.89 228.76 402.97 220.29" style="fill:#BA68C8"></polygon><polygon points="402.97 220.29 394.87 231.27 399.89 228.76 402.97 220.29" style="opacity:0.4000000059604645;isolation:isolate"></polygon><path d="M329,183.47a29.2,29.2,0,0,0-4.51-1.79,13,13,0,0,0-2.92-.86c-.75-.13-.76-2.4,1.92-2.15s3.72.4,4-.54Z" style="fill:#ffa8a7"></path><path d="M411,233.4c-.09,1.55-1.69,18-3.68,23.76a2.91,2.91,0,0,1-1.64,1.71c-3.45,1.48-4.51,3.11-6.72,5.12-1.49,1.36-2.7,1.64-2.55,2.12a2.31,2.31,0,0,0,2.86,1.24,15.79,15.79,0,0,0,3.47-1.59,21.51,21.51,0,0,1-3.83,5.65c-3.58,3.83-3.9,6.3,2.77,6.82,4.17.33,7.69-2,11.46-11a86.08,86.08,0,0,0,2.9-10.09c1.43-5.6,3.44-15.59,4.48-20.86a16.4,16.4,0,0,0-.11-6.87" style="fill:#ffa8a7"></path><path d="M404.77,152.57h0a12.29,12.29,0,0,1,12.29,12.29h0V188h0a12.29,12.29,0,0,1-12.29-12.29h0V152.57Z" style="fill:#263238"></path><path d="M387.32,266.48s-4.57-3.21-8.95-6.93c0,0,4.42,5.85,7,8l-2.81,25.61Z" style="fill:#263238"></path></g></svg>